<mxfile host="app.diagrams.net" agent="Mozilla/5.0 (Windows NT 10.0; Win64; x64) AppleWebKit/537.36 (KHTML, like Gecko) Chrome/133.0.0.0 Safari/537.36 Edg/133.0.0.0" version="26.0.16">
  <diagram id="C5RBs43oDa-KdzZeNtuy" name="Page-1">
    <mxGraphModel dx="2374" dy="1588" grid="1" gridSize="10" guides="1" tooltips="1" connect="1" arrows="1" fold="1" page="1" pageScale="1" pageWidth="827" pageHeight="1169" math="0" shadow="0">
      <root>
        <mxCell id="WIyWlLk6GJQsqaUBKTNV-0" />
        <mxCell id="WIyWlLk6GJQsqaUBKTNV-1" parent="WIyWlLk6GJQsqaUBKTNV-0" />
        <mxCell id="GfEQE-91LS-eangu9dl8-4" value="&lt;i&gt;VirtualKey&lt;/i&gt;" style="swimlane;fontStyle=1;align=center;verticalAlign=top;childLayout=stackLayout;horizontal=1;startSize=26;horizontalStack=0;resizeParent=1;resizeParentMax=0;resizeLast=0;collapsible=1;marginBottom=0;whiteSpace=wrap;html=1;" parent="WIyWlLk6GJQsqaUBKTNV-1" vertex="1">
          <mxGeometry x="610" width="380" height="190" as="geometry" />
        </mxCell>
        <mxCell id="GfEQE-91LS-eangu9dl8-5" value="+name : string" style="text;strokeColor=none;fillColor=none;align=left;verticalAlign=top;spacingLeft=4;spacingRight=4;overflow=hidden;rotatable=0;points=[[0,0.5],[1,0.5]];portConstraint=eastwest;whiteSpace=wrap;html=1;" parent="GfEQE-91LS-eangu9dl8-4" vertex="1">
          <mxGeometry y="26" width="380" height="26" as="geometry" />
        </mxCell>
        <mxCell id="GfEQE-91LS-eangu9dl8-9" value="+ enable : bool" style="text;strokeColor=none;fillColor=none;align=left;verticalAlign=top;spacingLeft=4;spacingRight=4;overflow=hidden;rotatable=0;points=[[0,0.5],[1,0.5]];portConstraint=eastwest;whiteSpace=wrap;html=1;" parent="GfEQE-91LS-eangu9dl8-4" vertex="1">
          <mxGeometry y="52" width="380" height="26" as="geometry" />
        </mxCell>
        <mxCell id="GfEQE-91LS-eangu9dl8-6" value="" style="line;strokeWidth=1;fillColor=none;align=left;verticalAlign=middle;spacingTop=-1;spacingLeft=3;spacingRight=3;rotatable=0;labelPosition=right;points=[];portConstraint=eastwest;strokeColor=inherit;" parent="GfEQE-91LS-eangu9dl8-4" vertex="1">
          <mxGeometry y="78" width="380" height="8" as="geometry" />
        </mxCell>
        <mxCell id="GfEQE-91LS-eangu9dl8-7" value="+ Init() : void virtual" style="text;strokeColor=none;fillColor=none;align=left;verticalAlign=top;spacingLeft=4;spacingRight=4;overflow=hidden;rotatable=0;points=[[0,0.5],[1,0.5]];portConstraint=eastwest;whiteSpace=wrap;html=1;" parent="GfEQE-91LS-eangu9dl8-4" vertex="1">
          <mxGeometry y="86" width="380" height="26" as="geometry" />
        </mxCell>
        <mxCell id="GfEQE-91LS-eangu9dl8-10" value="+ SetEnable(bool _enable) : void virtual" style="text;strokeColor=none;fillColor=none;align=left;verticalAlign=top;spacingLeft=4;spacingRight=4;overflow=hidden;rotatable=0;points=[[0,0.5],[1,0.5]];portConstraint=eastwest;whiteSpace=wrap;html=1;" parent="GfEQE-91LS-eangu9dl8-4" vertex="1">
          <mxGeometry y="112" width="380" height="26" as="geometry" />
        </mxCell>
        <mxCell id="GfEQE-91LS-eangu9dl8-11" value="+Update() : void abstract" style="text;strokeColor=none;fillColor=none;align=left;verticalAlign=top;spacingLeft=4;spacingRight=4;overflow=hidden;rotatable=0;points=[[0,0.5],[1,0.5]];portConstraint=eastwest;whiteSpace=wrap;html=1;" parent="GfEQE-91LS-eangu9dl8-4" vertex="1">
          <mxGeometry y="138" width="380" height="26" as="geometry" />
        </mxCell>
        <mxCell id="GfEQE-91LS-eangu9dl8-12" value="+SetKeyCode(params KeyCode[] keyCodes) : void abstract" style="text;strokeColor=none;fillColor=none;align=left;verticalAlign=top;spacingLeft=4;spacingRight=4;overflow=hidden;rotatable=0;points=[[0,0.5],[1,0.5]];portConstraint=eastwest;whiteSpace=wrap;html=1;" parent="GfEQE-91LS-eangu9dl8-4" vertex="1">
          <mxGeometry y="164" width="380" height="26" as="geometry" />
        </mxCell>
        <mxCell id="GfEQE-91LS-eangu9dl8-8" value="Extends" style="endArrow=block;endSize=16;endFill=0;html=1;rounded=0;exitX=0.774;exitY=-0.047;exitDx=0;exitDy=0;exitPerimeter=0;entryX=0.1;entryY=1.115;entryDx=0;entryDy=0;entryPerimeter=0;" parent="WIyWlLk6GJQsqaUBKTNV-1" target="GfEQE-91LS-eangu9dl8-12" edge="1">
          <mxGeometry width="160" relative="1" as="geometry">
            <mxPoint x="460.9000000000001" y="427.18000000000006" as="sourcePoint" />
            <mxPoint x="620" y="240" as="targetPoint" />
          </mxGeometry>
        </mxCell>
        <mxCell id="GfEQE-91LS-eangu9dl8-13" value="&lt;span style=&quot;white-space: pre;&quot;&gt;&#x9;&lt;/span&gt;AxisKeyDimension : enum" style="swimlane;fontStyle=1;align=center;verticalAlign=top;childLayout=stackLayout;horizontal=1;startSize=26;horizontalStack=0;resizeParent=1;resizeParentMax=0;resizeLast=0;collapsible=1;marginBottom=0;whiteSpace=wrap;html=1;" parent="WIyWlLk6GJQsqaUBKTNV-1" vertex="1">
          <mxGeometry x="-140" y="390" width="220" height="112" as="geometry" />
        </mxCell>
        <mxCell id="GfEQE-91LS-eangu9dl8-14" value="Axis1D&lt;div&gt;&lt;br&gt;&lt;/div&gt;&lt;div&gt;&lt;br&gt;&lt;/div&gt;&lt;div&gt;&lt;br&gt;&lt;/div&gt;" style="text;strokeColor=none;fillColor=none;align=left;verticalAlign=top;spacingLeft=4;spacingRight=4;overflow=hidden;rotatable=0;points=[[0,0.5],[1,0.5]];portConstraint=eastwest;whiteSpace=wrap;html=1;" parent="GfEQE-91LS-eangu9dl8-13" vertex="1">
          <mxGeometry y="26" width="220" height="26" as="geometry" />
        </mxCell>
        <mxCell id="GfEQE-91LS-eangu9dl8-17" value="Axis2D&lt;div&gt;&lt;br&gt;&lt;/div&gt;&lt;div&gt;&lt;br&gt;&lt;/div&gt;&lt;div&gt;&lt;br&gt;&lt;/div&gt;" style="text;strokeColor=none;fillColor=none;align=left;verticalAlign=top;spacingLeft=4;spacingRight=4;overflow=hidden;rotatable=0;points=[[0,0.5],[1,0.5]];portConstraint=eastwest;whiteSpace=wrap;html=1;" parent="GfEQE-91LS-eangu9dl8-13" vertex="1">
          <mxGeometry y="52" width="220" height="26" as="geometry" />
        </mxCell>
        <mxCell id="GfEQE-91LS-eangu9dl8-15" value="" style="line;strokeWidth=1;fillColor=none;align=left;verticalAlign=middle;spacingTop=-1;spacingLeft=3;spacingRight=3;rotatable=0;labelPosition=right;points=[];portConstraint=eastwest;strokeColor=inherit;" parent="GfEQE-91LS-eangu9dl8-13" vertex="1">
          <mxGeometry y="78" width="220" height="8" as="geometry" />
        </mxCell>
        <mxCell id="GfEQE-91LS-eangu9dl8-16" value="+ method(type): type" style="text;strokeColor=none;fillColor=none;align=left;verticalAlign=top;spacingLeft=4;spacingRight=4;overflow=hidden;rotatable=0;points=[[0,0.5],[1,0.5]];portConstraint=eastwest;whiteSpace=wrap;html=1;" parent="GfEQE-91LS-eangu9dl8-13" vertex="1">
          <mxGeometry y="86" width="220" height="26" as="geometry" />
        </mxCell>
        <mxCell id="GfEQE-91LS-eangu9dl8-18" value="Use" style="endArrow=open;endSize=12;dashed=1;html=1;rounded=0;entryX=1;entryY=0.5;entryDx=0;entryDy=0;exitX=0;exitY=0.25;exitDx=0;exitDy=0;" parent="WIyWlLk6GJQsqaUBKTNV-1" target="GfEQE-91LS-eangu9dl8-14" edge="1">
          <mxGeometry width="160" relative="1" as="geometry">
            <mxPoint x="190" y="445" as="sourcePoint" />
            <mxPoint x="160" y="590" as="targetPoint" />
          </mxGeometry>
        </mxCell>
        <mxCell id="GfEQE-91LS-eangu9dl8-19" value="&lt;span style=&quot;white-space: pre;&quot;&gt;&#x9;&lt;/span&gt;AxisKeyType&amp;nbsp;: enum" style="swimlane;fontStyle=1;align=center;verticalAlign=top;childLayout=stackLayout;horizontal=1;startSize=26;horizontalStack=0;resizeParent=1;resizeParentMax=0;resizeLast=0;collapsible=1;marginBottom=0;whiteSpace=wrap;html=1;" parent="WIyWlLk6GJQsqaUBKTNV-1" vertex="1">
          <mxGeometry x="-150" y="550" width="220" height="112" as="geometry" />
        </mxCell>
        <mxCell id="GfEQE-91LS-eangu9dl8-20" value="&lt;div&gt;Gradual&lt;/div&gt;" style="text;strokeColor=none;fillColor=none;align=left;verticalAlign=top;spacingLeft=4;spacingRight=4;overflow=hidden;rotatable=0;points=[[0,0.5],[1,0.5]];portConstraint=eastwest;whiteSpace=wrap;html=1;" parent="GfEQE-91LS-eangu9dl8-19" vertex="1">
          <mxGeometry y="26" width="220" height="26" as="geometry" />
        </mxCell>
        <mxCell id="GfEQE-91LS-eangu9dl8-21" value="&lt;div&gt;Sudden&lt;/div&gt;" style="text;strokeColor=none;fillColor=none;align=left;verticalAlign=top;spacingLeft=4;spacingRight=4;overflow=hidden;rotatable=0;points=[[0,0.5],[1,0.5]];portConstraint=eastwest;whiteSpace=wrap;html=1;" parent="GfEQE-91LS-eangu9dl8-19" vertex="1">
          <mxGeometry y="52" width="220" height="26" as="geometry" />
        </mxCell>
        <mxCell id="GfEQE-91LS-eangu9dl8-22" value="" style="line;strokeWidth=1;fillColor=none;align=left;verticalAlign=middle;spacingTop=-1;spacingLeft=3;spacingRight=3;rotatable=0;labelPosition=right;points=[];portConstraint=eastwest;strokeColor=inherit;" parent="GfEQE-91LS-eangu9dl8-19" vertex="1">
          <mxGeometry y="78" width="220" height="8" as="geometry" />
        </mxCell>
        <mxCell id="GfEQE-91LS-eangu9dl8-23" value="+ method(type): type" style="text;strokeColor=none;fillColor=none;align=left;verticalAlign=top;spacingLeft=4;spacingRight=4;overflow=hidden;rotatable=0;points=[[0,0.5],[1,0.5]];portConstraint=eastwest;whiteSpace=wrap;html=1;" parent="GfEQE-91LS-eangu9dl8-19" vertex="1">
          <mxGeometry y="86" width="220" height="26" as="geometry" />
        </mxCell>
        <mxCell id="GfEQE-91LS-eangu9dl8-24" value="Use" style="endArrow=open;endSize=12;dashed=1;html=1;rounded=0;entryX=1.014;entryY=0.269;entryDx=0;entryDy=0;entryPerimeter=0;" parent="WIyWlLk6GJQsqaUBKTNV-1" target="GfEQE-91LS-eangu9dl8-21" edge="1">
          <mxGeometry width="160" relative="1" as="geometry">
            <mxPoint x="190" y="500" as="sourcePoint" />
            <mxPoint x="100" y="550" as="targetPoint" />
          </mxGeometry>
        </mxCell>
        <mxCell id="GfEQE-91LS-eangu9dl8-25" value="AxisKey" style="swimlane;fontStyle=1;align=center;verticalAlign=top;childLayout=stackLayout;horizontal=1;startSize=26;horizontalStack=0;resizeParent=1;resizeParentMax=0;resizeLast=0;collapsible=1;marginBottom=0;whiteSpace=wrap;html=1;" parent="WIyWlLk6GJQsqaUBKTNV-1" vertex="1">
          <mxGeometry x="190" y="427" width="770" height="830" as="geometry" />
        </mxCell>
        <mxCell id="GfEQE-91LS-eangu9dl8-26" value="一维轴" style="text;strokeColor=none;fillColor=none;align=left;verticalAlign=top;spacingLeft=4;spacingRight=4;overflow=hidden;rotatable=0;points=[[0,0.5],[1,0.5]];portConstraint=eastwest;whiteSpace=wrap;html=1;" parent="GfEQE-91LS-eangu9dl8-25" vertex="1">
          <mxGeometry y="26" width="770" height="26" as="geometry" />
        </mxCell>
        <mxCell id="GfEQE-91LS-eangu9dl8-40" value="+dim : AxisKeyDimension" style="text;strokeColor=none;fillColor=none;align=left;verticalAlign=top;spacingLeft=4;spacingRight=4;overflow=hidden;rotatable=0;points=[[0,0.5],[1,0.5]];portConstraint=eastwest;whiteSpace=wrap;html=1;" parent="GfEQE-91LS-eangu9dl8-25" vertex="1">
          <mxGeometry y="52" width="770" height="26" as="geometry" />
        </mxCell>
        <mxCell id="GfEQE-91LS-eangu9dl8-29" value="+type : AxisKeyType" style="text;strokeColor=none;fillColor=none;align=left;verticalAlign=top;spacingLeft=4;spacingRight=4;overflow=hidden;rotatable=0;points=[[0,0.5],[1,0.5]];portConstraint=eastwest;whiteSpace=wrap;html=1;" parent="GfEQE-91LS-eangu9dl8-25" vertex="1">
          <mxGeometry y="78" width="770" height="26" as="geometry" />
        </mxCell>
        <mxCell id="GfEQE-91LS-eangu9dl8-30" value="+posKey : KeyCode" style="text;strokeColor=none;fillColor=none;align=left;verticalAlign=top;spacingLeft=4;spacingRight=4;overflow=hidden;rotatable=0;points=[[0,0.5],[1,0.5]];portConstraint=eastwest;whiteSpace=wrap;html=1;" parent="GfEQE-91LS-eangu9dl8-25" vertex="1">
          <mxGeometry y="104" width="770" height="26" as="geometry" />
        </mxCell>
        <mxCell id="GfEQE-91LS-eangu9dl8-31" value="+negKey : KeyCode" style="text;strokeColor=none;fillColor=none;align=left;verticalAlign=top;spacingLeft=4;spacingRight=4;overflow=hidden;rotatable=0;points=[[0,0.5],[1,0.5]];portConstraint=eastwest;whiteSpace=wrap;html=1;" parent="GfEQE-91LS-eangu9dl8-25" vertex="1">
          <mxGeometry y="130" width="770" height="26" as="geometry" />
        </mxCell>
        <mxCell id="GfEQE-91LS-eangu9dl8-32" value="+range : Vector2" style="text;strokeColor=none;fillColor=none;align=left;verticalAlign=top;spacingLeft=4;spacingRight=4;overflow=hidden;rotatable=0;points=[[0,0.5],[1,0.5]];portConstraint=eastwest;whiteSpace=wrap;html=1;" parent="GfEQE-91LS-eangu9dl8-25" vertex="1">
          <mxGeometry y="156" width="770" height="26" as="geometry" />
        </mxCell>
        <mxCell id="GfEQE-91LS-eangu9dl8-33" value="+start : float" style="text;strokeColor=none;fillColor=none;align=left;verticalAlign=top;spacingLeft=4;spacingRight=4;overflow=hidden;rotatable=0;points=[[0,0.5],[1,0.5]];portConstraint=eastwest;whiteSpace=wrap;html=1;" parent="GfEQE-91LS-eangu9dl8-25" vertex="1">
          <mxGeometry y="182" width="770" height="26" as="geometry" />
        </mxCell>
        <mxCell id="GfEQE-91LS-eangu9dl8-34" value="+posSpeed : Vector2" style="text;strokeColor=none;fillColor=none;align=left;verticalAlign=top;spacingLeft=4;spacingRight=4;overflow=hidden;rotatable=0;points=[[0,0.5],[1,0.5]];portConstraint=eastwest;whiteSpace=wrap;html=1;" parent="GfEQE-91LS-eangu9dl8-25" vertex="1">
          <mxGeometry y="208" width="770" height="26" as="geometry" />
        </mxCell>
        <mxCell id="GfEQE-91LS-eangu9dl8-35" value="+negSpeed: Vector2" style="text;strokeColor=none;fillColor=none;align=left;verticalAlign=top;spacingLeft=4;spacingRight=4;overflow=hidden;rotatable=0;points=[[0,0.5],[1,0.5]];portConstraint=eastwest;whiteSpace=wrap;html=1;" parent="GfEQE-91LS-eangu9dl8-25" vertex="1">
          <mxGeometry y="234" width="770" height="26" as="geometry" />
        </mxCell>
        <mxCell id="GfEQE-91LS-eangu9dl8-38" value="二维轴" style="text;strokeColor=none;fillColor=none;align=left;verticalAlign=top;spacingLeft=4;spacingRight=4;overflow=hidden;rotatable=0;points=[[0,0.5],[1,0.5]];portConstraint=eastwest;whiteSpace=wrap;html=1;" parent="GfEQE-91LS-eangu9dl8-25" vertex="1">
          <mxGeometry y="260" width="770" height="26" as="geometry" />
        </mxCell>
        <mxCell id="GfEQE-91LS-eangu9dl8-41" value="+upKey : KeyCode" style="text;strokeColor=none;fillColor=none;align=left;verticalAlign=top;spacingLeft=4;spacingRight=4;overflow=hidden;rotatable=0;points=[[0,0.5],[1,0.5]];portConstraint=eastwest;whiteSpace=wrap;html=1;" parent="GfEQE-91LS-eangu9dl8-25" vertex="1">
          <mxGeometry y="286" width="770" height="26" as="geometry" />
        </mxCell>
        <mxCell id="GfEQE-91LS-eangu9dl8-42" value="+downKey : KeyCode" style="text;strokeColor=none;fillColor=none;align=left;verticalAlign=top;spacingLeft=4;spacingRight=4;overflow=hidden;rotatable=0;points=[[0,0.5],[1,0.5]];portConstraint=eastwest;whiteSpace=wrap;html=1;" parent="GfEQE-91LS-eangu9dl8-25" vertex="1">
          <mxGeometry y="312" width="770" height="26" as="geometry" />
        </mxCell>
        <mxCell id="GfEQE-91LS-eangu9dl8-43" value="+LeftKey : KeyCode" style="text;strokeColor=none;fillColor=none;align=left;verticalAlign=top;spacingLeft=4;spacingRight=4;overflow=hidden;rotatable=0;points=[[0,0.5],[1,0.5]];portConstraint=eastwest;whiteSpace=wrap;html=1;" parent="GfEQE-91LS-eangu9dl8-25" vertex="1">
          <mxGeometry y="338" width="770" height="26" as="geometry" />
        </mxCell>
        <mxCell id="GfEQE-91LS-eangu9dl8-44" value="+RightKey : KeyCode" style="text;strokeColor=none;fillColor=none;align=left;verticalAlign=top;spacingLeft=4;spacingRight=4;overflow=hidden;rotatable=0;points=[[0,0.5],[1,0.5]];portConstraint=eastwest;whiteSpace=wrap;html=1;" parent="GfEQE-91LS-eangu9dl8-25" vertex="1">
          <mxGeometry y="364" width="770" height="26" as="geometry" />
        </mxCell>
        <mxCell id="GfEQE-91LS-eangu9dl8-45" value="+horRange : Vector2" style="text;strokeColor=none;fillColor=none;align=left;verticalAlign=top;spacingLeft=4;spacingRight=4;overflow=hidden;rotatable=0;points=[[0,0.5],[1,0.5]];portConstraint=eastwest;whiteSpace=wrap;html=1;" parent="GfEQE-91LS-eangu9dl8-25" vertex="1">
          <mxGeometry y="390" width="770" height="26" as="geometry" />
        </mxCell>
        <mxCell id="GfEQE-91LS-eangu9dl8-46" value="+verRange : Vector2" style="text;strokeColor=none;fillColor=none;align=left;verticalAlign=top;spacingLeft=4;spacingRight=4;overflow=hidden;rotatable=0;points=[[0,0.5],[1,0.5]];portConstraint=eastwest;whiteSpace=wrap;html=1;" parent="GfEQE-91LS-eangu9dl8-25" vertex="1">
          <mxGeometry y="416" width="770" height="26" as="geometry" />
        </mxCell>
        <mxCell id="GfEQE-91LS-eangu9dl8-47" value="+horStart : float" style="text;strokeColor=none;fillColor=none;align=left;verticalAlign=top;spacingLeft=4;spacingRight=4;overflow=hidden;rotatable=0;points=[[0,0.5],[1,0.5]];portConstraint=eastwest;whiteSpace=wrap;html=1;" parent="GfEQE-91LS-eangu9dl8-25" vertex="1">
          <mxGeometry y="442" width="770" height="26" as="geometry" />
        </mxCell>
        <mxCell id="GfEQE-91LS-eangu9dl8-48" value="+verStart : float" style="text;strokeColor=none;fillColor=none;align=left;verticalAlign=top;spacingLeft=4;spacingRight=4;overflow=hidden;rotatable=0;points=[[0,0.5],[1,0.5]];portConstraint=eastwest;whiteSpace=wrap;html=1;" parent="GfEQE-91LS-eangu9dl8-25" vertex="1">
          <mxGeometry y="468" width="770" height="26" as="geometry" />
        </mxCell>
        <mxCell id="GfEQE-91LS-eangu9dl8-49" value="+horPosSpeed : Vector2" style="text;strokeColor=none;fillColor=none;align=left;verticalAlign=top;spacingLeft=4;spacingRight=4;overflow=hidden;rotatable=0;points=[[0,0.5],[1,0.5]];portConstraint=eastwest;whiteSpace=wrap;html=1;" parent="GfEQE-91LS-eangu9dl8-25" vertex="1">
          <mxGeometry y="494" width="770" height="26" as="geometry" />
        </mxCell>
        <mxCell id="GfEQE-91LS-eangu9dl8-50" value="+horNegSpeed : Vector2" style="text;strokeColor=none;fillColor=none;align=left;verticalAlign=top;spacingLeft=4;spacingRight=4;overflow=hidden;rotatable=0;points=[[0,0.5],[1,0.5]];portConstraint=eastwest;whiteSpace=wrap;html=1;" parent="GfEQE-91LS-eangu9dl8-25" vertex="1">
          <mxGeometry y="520" width="770" height="26" as="geometry" />
        </mxCell>
        <mxCell id="GfEQE-91LS-eangu9dl8-51" value="+verPosSpeed : Vector2" style="text;strokeColor=none;fillColor=none;align=left;verticalAlign=top;spacingLeft=4;spacingRight=4;overflow=hidden;rotatable=0;points=[[0,0.5],[1,0.5]];portConstraint=eastwest;whiteSpace=wrap;html=1;" parent="GfEQE-91LS-eangu9dl8-25" vertex="1">
          <mxGeometry y="546" width="770" height="26" as="geometry" />
        </mxCell>
        <mxCell id="GfEQE-91LS-eangu9dl8-52" value="+verNegSpeed : Vector2" style="text;strokeColor=none;fillColor=none;align=left;verticalAlign=top;spacingLeft=4;spacingRight=4;overflow=hidden;rotatable=0;points=[[0,0.5],[1,0.5]];portConstraint=eastwest;whiteSpace=wrap;html=1;" parent="GfEQE-91LS-eangu9dl8-25" vertex="1">
          <mxGeometry y="572" width="770" height="26" as="geometry" />
        </mxCell>
        <mxCell id="GfEQE-91LS-eangu9dl8-53" value="+value1D : float" style="text;strokeColor=none;fillColor=none;align=left;verticalAlign=top;spacingLeft=4;spacingRight=4;overflow=hidden;rotatable=0;points=[[0,0.5],[1,0.5]];portConstraint=eastwest;whiteSpace=wrap;html=1;" parent="GfEQE-91LS-eangu9dl8-25" vertex="1">
          <mxGeometry y="598" width="770" height="26" as="geometry" />
        </mxCell>
        <mxCell id="GfEQE-91LS-eangu9dl8-54" value="+value2D : Vector2" style="text;strokeColor=none;fillColor=none;align=left;verticalAlign=top;spacingLeft=4;spacingRight=4;overflow=hidden;rotatable=0;points=[[0,0.5],[1,0.5]];portConstraint=eastwest;whiteSpace=wrap;html=1;" parent="GfEQE-91LS-eangu9dl8-25" vertex="1">
          <mxGeometry y="624" width="770" height="26" as="geometry" />
        </mxCell>
        <mxCell id="GfEQE-91LS-eangu9dl8-27" value="" style="line;strokeWidth=1;fillColor=none;align=left;verticalAlign=middle;spacingTop=-1;spacingLeft=3;spacingRight=3;rotatable=0;labelPosition=right;points=[];portConstraint=eastwest;strokeColor=inherit;" parent="GfEQE-91LS-eangu9dl8-25" vertex="1">
          <mxGeometry y="650" width="770" height="8" as="geometry" />
        </mxCell>
        <mxCell id="GfEQE-91LS-eangu9dl8-28" value="+Init() : void override" style="text;strokeColor=none;fillColor=none;align=left;verticalAlign=top;spacingLeft=4;spacingRight=4;overflow=hidden;rotatable=0;points=[[0,0.5],[1,0.5]];portConstraint=eastwest;whiteSpace=wrap;html=1;" parent="GfEQE-91LS-eangu9dl8-25" vertex="1">
          <mxGeometry y="658" width="770" height="26" as="geometry" />
        </mxCell>
        <mxCell id="GfEQE-91LS-eangu9dl8-55" value="+SetKeyCode(param KeyCode[] keyCodes) : void override" style="text;strokeColor=none;fillColor=none;align=left;verticalAlign=top;spacingLeft=4;spacingRight=4;overflow=hidden;rotatable=0;points=[[0,0.5],[1,0.5]];portConstraint=eastwest;whiteSpace=wrap;html=1;" parent="GfEQE-91LS-eangu9dl8-25" vertex="1">
          <mxGeometry y="684" width="770" height="26" as="geometry" />
        </mxCell>
        <mxCell id="GfEQE-91LS-eangu9dl8-56" value="+Update() : void override" style="text;strokeColor=none;fillColor=none;align=left;verticalAlign=top;spacingLeft=4;spacingRight=4;overflow=hidden;rotatable=0;points=[[0,0.5],[1,0.5]];portConstraint=eastwest;whiteSpace=wrap;html=1;" parent="GfEQE-91LS-eangu9dl8-25" vertex="1">
          <mxGeometry y="710" width="770" height="26" as="geometry" />
        </mxCell>
        <mxCell id="GfEQE-91LS-eangu9dl8-58" value="-Check(Vector2 speed, Vector2 range, float start): bool" style="text;strokeColor=none;fillColor=none;align=left;verticalAlign=top;spacingLeft=4;spacingRight=4;overflow=hidden;rotatable=0;points=[[0,0.5],[1,0.5]];portConstraint=eastwest;whiteSpace=wrap;html=1;" parent="GfEQE-91LS-eangu9dl8-25" vertex="1">
          <mxGeometry y="736" width="770" height="26" as="geometry" />
        </mxCell>
        <mxCell id="GfEQE-91LS-eangu9dl8-57" value="-SetSuddenValue(ref float value, float start, Vector2 range, KeyCode pos, KeyCode neg) : void" style="text;strokeColor=none;fillColor=none;align=left;verticalAlign=top;spacingLeft=4;spacingRight=4;overflow=hidden;rotatable=0;points=[[0,0.5],[1,0.5]];portConstraint=eastwest;whiteSpace=wrap;html=1;" parent="GfEQE-91LS-eangu9dl8-25" vertex="1">
          <mxGeometry y="762" width="770" height="26" as="geometry" />
        </mxCell>
        <mxCell id="GfEQE-91LS-eangu9dl8-130" value="-SetGradualValue(ref flaot value, flaot start, Vector2 posSpeed, Vector2 negSpeed, Vector2 range,&amp;nbsp; KeyCode pos, KeyCode neg) : void" style="text;strokeColor=none;fillColor=none;align=left;verticalAlign=top;spacingLeft=4;spacingRight=4;overflow=hidden;rotatable=0;points=[[0,0.5],[1,0.5]];portConstraint=eastwest;whiteSpace=wrap;html=1;" parent="GfEQE-91LS-eangu9dl8-25" vertex="1">
          <mxGeometry y="788" width="770" height="42" as="geometry" />
        </mxCell>
        <mxCell id="GfEQE-91LS-eangu9dl8-59" value="MultiKey" style="swimlane;fontStyle=1;align=center;verticalAlign=top;childLayout=stackLayout;horizontal=1;startSize=26;horizontalStack=0;resizeParent=1;resizeParentMax=0;resizeLast=0;collapsible=1;marginBottom=0;whiteSpace=wrap;html=1;" parent="WIyWlLk6GJQsqaUBKTNV-1" vertex="1">
          <mxGeometry x="810" y="420" width="340" height="320" as="geometry" />
        </mxCell>
        <mxCell id="GfEQE-91LS-eangu9dl8-60" value="+count : int 2" style="text;strokeColor=none;fillColor=none;align=left;verticalAlign=top;spacingLeft=4;spacingRight=4;overflow=hidden;rotatable=0;points=[[0,0.5],[1,0.5]];portConstraint=eastwest;whiteSpace=wrap;html=1;" parent="GfEQE-91LS-eangu9dl8-59" vertex="1">
          <mxGeometry y="26" width="340" height="26" as="geometry" />
        </mxCell>
        <mxCell id="GfEQE-91LS-eangu9dl8-64" value="+keys : List&amp;lt;KeyCode&amp;gt;" style="text;strokeColor=none;fillColor=none;align=left;verticalAlign=top;spacingLeft=4;spacingRight=4;overflow=hidden;rotatable=0;points=[[0,0.5],[1,0.5]];portConstraint=eastwest;whiteSpace=wrap;html=1;" parent="GfEQE-91LS-eangu9dl8-59" vertex="1">
          <mxGeometry y="52" width="340" height="26" as="geometry" />
        </mxCell>
        <mxCell id="GfEQE-91LS-eangu9dl8-65" value="+interval : float 0.5f" style="text;strokeColor=none;fillColor=none;align=left;verticalAlign=top;spacingLeft=4;spacingRight=4;overflow=hidden;rotatable=0;points=[[0,0.5],[1,0.5]];portConstraint=eastwest;whiteSpace=wrap;html=1;" parent="GfEQE-91LS-eangu9dl8-59" vertex="1">
          <mxGeometry y="78" width="340" height="26" as="geometry" />
        </mxCell>
        <mxCell id="GfEQE-91LS-eangu9dl8-66" value="-_currentInterval : float" style="text;strokeColor=none;fillColor=none;align=left;verticalAlign=top;spacingLeft=4;spacingRight=4;overflow=hidden;rotatable=0;points=[[0,0.5],[1,0.5]];portConstraint=eastwest;whiteSpace=wrap;html=1;" parent="GfEQE-91LS-eangu9dl8-59" vertex="1">
          <mxGeometry y="104" width="340" height="26" as="geometry" />
        </mxCell>
        <mxCell id="GfEQE-91LS-eangu9dl8-67" value="-_keyState : bool[]" style="text;strokeColor=none;fillColor=none;align=left;verticalAlign=top;spacingLeft=4;spacingRight=4;overflow=hidden;rotatable=0;points=[[0,0.5],[1,0.5]];portConstraint=eastwest;whiteSpace=wrap;html=1;" parent="GfEQE-91LS-eangu9dl8-59" vertex="1">
          <mxGeometry y="130" width="340" height="26" as="geometry" />
        </mxCell>
        <mxCell id="GfEQE-91LS-eangu9dl8-61" value="" style="line;strokeWidth=1;fillColor=none;align=left;verticalAlign=middle;spacingTop=-1;spacingLeft=3;spacingRight=3;rotatable=0;labelPosition=right;points=[];portConstraint=eastwest;strokeColor=inherit;" parent="GfEQE-91LS-eangu9dl8-59" vertex="1">
          <mxGeometry y="156" width="340" height="8" as="geometry" />
        </mxCell>
        <mxCell id="GfEQE-91LS-eangu9dl8-62" value="+Init() : void override" style="text;strokeColor=none;fillColor=none;align=left;verticalAlign=top;spacingLeft=4;spacingRight=4;overflow=hidden;rotatable=0;points=[[0,0.5],[1,0.5]];portConstraint=eastwest;whiteSpace=wrap;html=1;" parent="GfEQE-91LS-eangu9dl8-59" vertex="1">
          <mxGeometry y="164" width="340" height="26" as="geometry" />
        </mxCell>
        <mxCell id="GfEQE-91LS-eangu9dl8-68" value="+SetEnable(bool _enable) : void override" style="text;strokeColor=none;fillColor=none;align=left;verticalAlign=top;spacingLeft=4;spacingRight=4;overflow=hidden;rotatable=0;points=[[0,0.5],[1,0.5]];portConstraint=eastwest;whiteSpace=wrap;html=1;" parent="GfEQE-91LS-eangu9dl8-59" vertex="1">
          <mxGeometry y="190" width="340" height="26" as="geometry" />
        </mxCell>
        <mxCell id="GfEQE-91LS-eangu9dl8-69" value="+SetKeyCode(params KeyCode[] keyCodes) : void override" style="text;strokeColor=none;fillColor=none;align=left;verticalAlign=top;spacingLeft=4;spacingRight=4;overflow=hidden;rotatable=0;points=[[0,0.5],[1,0.5]];portConstraint=eastwest;whiteSpace=wrap;html=1;" parent="GfEQE-91LS-eangu9dl8-59" vertex="1">
          <mxGeometry y="216" width="340" height="26" as="geometry" />
        </mxCell>
        <mxCell id="GfEQE-91LS-eangu9dl8-70" value="+Update() : void override" style="text;strokeColor=none;fillColor=none;align=left;verticalAlign=top;spacingLeft=4;spacingRight=4;overflow=hidden;rotatable=0;points=[[0,0.5],[1,0.5]];portConstraint=eastwest;whiteSpace=wrap;html=1;" parent="GfEQE-91LS-eangu9dl8-59" vertex="1">
          <mxGeometry y="242" width="340" height="26" as="geometry" />
        </mxCell>
        <mxCell id="GfEQE-91LS-eangu9dl8-71" value="-AllKeyTriggered() : bool&amp;nbsp;" style="text;strokeColor=none;fillColor=none;align=left;verticalAlign=top;spacingLeft=4;spacingRight=4;overflow=hidden;rotatable=0;points=[[0,0.5],[1,0.5]];portConstraint=eastwest;whiteSpace=wrap;html=1;" parent="GfEQE-91LS-eangu9dl8-59" vertex="1">
          <mxGeometry y="268" width="340" height="26" as="geometry" />
        </mxCell>
        <mxCell id="GfEQE-91LS-eangu9dl8-72" value="-Reset() : void" style="text;strokeColor=none;fillColor=none;align=left;verticalAlign=top;spacingLeft=4;spacingRight=4;overflow=hidden;rotatable=0;points=[[0,0.5],[1,0.5]];portConstraint=eastwest;whiteSpace=wrap;html=1;" parent="GfEQE-91LS-eangu9dl8-59" vertex="1">
          <mxGeometry y="294" width="340" height="26" as="geometry" />
        </mxCell>
        <mxCell id="GfEQE-91LS-eangu9dl8-63" value="Extends" style="endArrow=block;endSize=16;endFill=0;html=1;rounded=0;entryX=0.647;entryY=1.089;entryDx=0;entryDy=0;entryPerimeter=0;" parent="WIyWlLk6GJQsqaUBKTNV-1" target="GfEQE-91LS-eangu9dl8-12" edge="1">
          <mxGeometry width="160" relative="1" as="geometry">
            <mxPoint x="890" y="420" as="sourcePoint" />
            <mxPoint x="1060" y="290" as="targetPoint" />
          </mxGeometry>
        </mxCell>
        <mxCell id="GfEQE-91LS-eangu9dl8-73" value="ComboKey" style="swimlane;fontStyle=1;align=center;verticalAlign=top;childLayout=stackLayout;horizontal=1;startSize=26;horizontalStack=0;resizeParent=1;resizeParentMax=0;resizeLast=0;collapsible=1;marginBottom=0;whiteSpace=wrap;html=1;" parent="WIyWlLk6GJQsqaUBKTNV-1" vertex="1">
          <mxGeometry x="1210" y="427" width="540" height="242" as="geometry" />
        </mxCell>
        <mxCell id="GfEQE-91LS-eangu9dl8-74" value="+keys : List&amp;lt;KeyCode&amp;gt;" style="text;strokeColor=none;fillColor=none;align=left;verticalAlign=top;spacingLeft=4;spacingRight=4;overflow=hidden;rotatable=0;points=[[0,0.5],[1,0.5]];portConstraint=eastwest;whiteSpace=wrap;html=1;" parent="GfEQE-91LS-eangu9dl8-73" vertex="1">
          <mxGeometry y="26" width="540" height="26" as="geometry" />
        </mxCell>
        <mxCell id="GfEQE-91LS-eangu9dl8-77" value="+interval : float 0.5f" style="text;strokeColor=none;fillColor=none;align=left;verticalAlign=top;spacingLeft=4;spacingRight=4;overflow=hidden;rotatable=0;points=[[0,0.5],[1,0.5]];portConstraint=eastwest;whiteSpace=wrap;html=1;" parent="GfEQE-91LS-eangu9dl8-73" vertex="1">
          <mxGeometry y="52" width="540" height="26" as="geometry" />
        </mxCell>
        <mxCell id="GfEQE-91LS-eangu9dl8-78" value="+isTriggered bool" style="text;strokeColor=none;fillColor=none;align=left;verticalAlign=top;spacingLeft=4;spacingRight=4;overflow=hidden;rotatable=0;points=[[0,0.5],[1,0.5]];portConstraint=eastwest;whiteSpace=wrap;html=1;" parent="GfEQE-91LS-eangu9dl8-73" vertex="1">
          <mxGeometry y="78" width="540" height="26" as="geometry" />
        </mxCell>
        <mxCell id="GfEQE-91LS-eangu9dl8-79" value="+combo : int" style="text;strokeColor=none;fillColor=none;align=left;verticalAlign=top;spacingLeft=4;spacingRight=4;overflow=hidden;rotatable=0;points=[[0,0.5],[1,0.5]];portConstraint=eastwest;whiteSpace=wrap;html=1;" parent="GfEQE-91LS-eangu9dl8-73" vertex="1">
          <mxGeometry y="104" width="540" height="26" as="geometry" />
        </mxCell>
        <mxCell id="GfEQE-91LS-eangu9dl8-80" value="-_currentInterval : float" style="text;strokeColor=none;fillColor=none;align=left;verticalAlign=top;spacingLeft=4;spacingRight=4;overflow=hidden;rotatable=0;points=[[0,0.5],[1,0.5]];portConstraint=eastwest;whiteSpace=wrap;html=1;" parent="GfEQE-91LS-eangu9dl8-73" vertex="1">
          <mxGeometry y="130" width="540" height="26" as="geometry" />
        </mxCell>
        <mxCell id="GfEQE-91LS-eangu9dl8-75" value="" style="line;strokeWidth=1;fillColor=none;align=left;verticalAlign=middle;spacingTop=-1;spacingLeft=3;spacingRight=3;rotatable=0;labelPosition=right;points=[];portConstraint=eastwest;strokeColor=inherit;" parent="GfEQE-91LS-eangu9dl8-73" vertex="1">
          <mxGeometry y="156" width="540" height="8" as="geometry" />
        </mxCell>
        <mxCell id="GfEQE-91LS-eangu9dl8-76" value="+SetEnable(bool _enable) : void override" style="text;strokeColor=none;fillColor=none;align=left;verticalAlign=top;spacingLeft=4;spacingRight=4;overflow=hidden;rotatable=0;points=[[0,0.5],[1,0.5]];portConstraint=eastwest;whiteSpace=wrap;html=1;" parent="GfEQE-91LS-eangu9dl8-73" vertex="1">
          <mxGeometry y="164" width="540" height="26" as="geometry" />
        </mxCell>
        <mxCell id="GfEQE-91LS-eangu9dl8-82" value="+SetKeyCode(params KeyCode[] keyCodes) : void override" style="text;strokeColor=none;fillColor=none;align=left;verticalAlign=top;spacingLeft=4;spacingRight=4;overflow=hidden;rotatable=0;points=[[0,0.5],[1,0.5]];portConstraint=eastwest;whiteSpace=wrap;html=1;" parent="GfEQE-91LS-eangu9dl8-73" vertex="1">
          <mxGeometry y="190" width="540" height="26" as="geometry" />
        </mxCell>
        <mxCell id="GfEQE-91LS-eangu9dl8-83" value="+Update() : void override" style="text;strokeColor=none;fillColor=none;align=left;verticalAlign=top;spacingLeft=4;spacingRight=4;overflow=hidden;rotatable=0;points=[[0,0.5],[1,0.5]];portConstraint=eastwest;whiteSpace=wrap;html=1;" parent="GfEQE-91LS-eangu9dl8-73" vertex="1">
          <mxGeometry y="216" width="540" height="26" as="geometry" />
        </mxCell>
        <mxCell id="GfEQE-91LS-eangu9dl8-81" value="Extends" style="endArrow=block;endSize=16;endFill=0;html=1;rounded=0;entryX=0.947;entryY=1;entryDx=0;entryDy=0;entryPerimeter=0;" parent="WIyWlLk6GJQsqaUBKTNV-1" target="GfEQE-91LS-eangu9dl8-12" edge="1">
          <mxGeometry width="160" relative="1" as="geometry">
            <mxPoint x="1300" y="420" as="sourcePoint" />
            <mxPoint x="1270" y="370" as="targetPoint" />
          </mxGeometry>
        </mxCell>
        <mxCell id="GfEQE-91LS-eangu9dl8-84" value="PressKey" style="swimlane;fontStyle=1;align=center;verticalAlign=top;childLayout=stackLayout;horizontal=1;startSize=26;horizontalStack=0;resizeParent=1;resizeParentMax=0;resizeLast=0;collapsible=1;marginBottom=0;whiteSpace=wrap;html=1;" parent="WIyWlLk6GJQsqaUBKTNV-1" vertex="1">
          <mxGeometry x="1820" y="427" width="570" height="268" as="geometry" />
        </mxCell>
        <mxCell id="GfEQE-91LS-eangu9dl8-92" value="Use" style="endArrow=open;endSize=12;dashed=1;html=1;rounded=0;entryX=0;entryY=0.5;entryDx=0;entryDy=0;" parent="GfEQE-91LS-eangu9dl8-84" target="GfEQE-91LS-eangu9dl8-89" edge="1">
          <mxGeometry width="160" relative="1" as="geometry">
            <mxPoint x="560" y="13" as="sourcePoint" />
            <mxPoint x="720" y="13" as="targetPoint" />
          </mxGeometry>
        </mxCell>
        <mxCell id="GfEQE-91LS-eangu9dl8-85" value="+type : PressKeyType" style="text;strokeColor=none;fillColor=none;align=left;verticalAlign=top;spacingLeft=4;spacingRight=4;overflow=hidden;rotatable=0;points=[[0,0.5],[1,0.5]];portConstraint=eastwest;whiteSpace=wrap;html=1;" parent="GfEQE-91LS-eangu9dl8-84" vertex="1">
          <mxGeometry y="26" width="570" height="26" as="geometry" />
        </mxCell>
        <mxCell id="GfEQE-91LS-eangu9dl8-95" value="+keyCode : KeyCode" style="text;strokeColor=none;fillColor=none;align=left;verticalAlign=top;spacingLeft=4;spacingRight=4;overflow=hidden;rotatable=0;points=[[0,0.5],[1,0.5]];portConstraint=eastwest;whiteSpace=wrap;html=1;" parent="GfEQE-91LS-eangu9dl8-84" vertex="1">
          <mxGeometry y="52" width="570" height="26" as="geometry" />
        </mxCell>
        <mxCell id="GfEQE-91LS-eangu9dl8-96" value="+isDown : bool" style="text;strokeColor=none;fillColor=none;align=left;verticalAlign=top;spacingLeft=4;spacingRight=4;overflow=hidden;rotatable=0;points=[[0,0.5],[1,0.5]];portConstraint=eastwest;whiteSpace=wrap;html=1;" parent="GfEQE-91LS-eangu9dl8-84" vertex="1">
          <mxGeometry y="78" width="570" height="26" as="geometry" />
        </mxCell>
        <mxCell id="GfEQE-91LS-eangu9dl8-97" value="+isPressing : bool" style="text;strokeColor=none;fillColor=none;align=left;verticalAlign=top;spacingLeft=4;spacingRight=4;overflow=hidden;rotatable=0;points=[[0,0.5],[1,0.5]];portConstraint=eastwest;whiteSpace=wrap;html=1;" parent="GfEQE-91LS-eangu9dl8-84" vertex="1">
          <mxGeometry y="104" width="570" height="26" as="geometry" />
        </mxCell>
        <mxCell id="GfEQE-91LS-eangu9dl8-98" value="+isUp : bool" style="text;strokeColor=none;fillColor=none;align=left;verticalAlign=top;spacingLeft=4;spacingRight=4;overflow=hidden;rotatable=0;points=[[0,0.5],[1,0.5]];portConstraint=eastwest;whiteSpace=wrap;html=1;" parent="GfEQE-91LS-eangu9dl8-84" vertex="1">
          <mxGeometry y="130" width="570" height="26" as="geometry" />
        </mxCell>
        <mxCell id="GfEQE-91LS-eangu9dl8-99" value="+pressTime : float" style="text;strokeColor=none;fillColor=none;align=left;verticalAlign=top;spacingLeft=4;spacingRight=4;overflow=hidden;rotatable=0;points=[[0,0.5],[1,0.5]];portConstraint=eastwest;whiteSpace=wrap;html=1;" parent="GfEQE-91LS-eangu9dl8-84" vertex="1">
          <mxGeometry y="156" width="570" height="26" as="geometry" />
        </mxCell>
        <mxCell id="GfEQE-91LS-eangu9dl8-86" value="" style="line;strokeWidth=1;fillColor=none;align=left;verticalAlign=middle;spacingTop=-1;spacingLeft=3;spacingRight=3;rotatable=0;labelPosition=right;points=[];portConstraint=eastwest;strokeColor=inherit;" parent="GfEQE-91LS-eangu9dl8-84" vertex="1">
          <mxGeometry y="182" width="570" height="8" as="geometry" />
        </mxCell>
        <mxCell id="GfEQE-91LS-eangu9dl8-87" value="+SetEnable(bool _enable) : void override" style="text;strokeColor=none;fillColor=none;align=left;verticalAlign=top;spacingLeft=4;spacingRight=4;overflow=hidden;rotatable=0;points=[[0,0.5],[1,0.5]];portConstraint=eastwest;whiteSpace=wrap;html=1;" parent="GfEQE-91LS-eangu9dl8-84" vertex="1">
          <mxGeometry y="190" width="570" height="26" as="geometry" />
        </mxCell>
        <mxCell id="GfEQE-91LS-eangu9dl8-100" value="+SetKeyCode(params KeyCode[] keyCodes): void override" style="text;strokeColor=none;fillColor=none;align=left;verticalAlign=top;spacingLeft=4;spacingRight=4;overflow=hidden;rotatable=0;points=[[0,0.5],[1,0.5]];portConstraint=eastwest;whiteSpace=wrap;html=1;" parent="GfEQE-91LS-eangu9dl8-84" vertex="1">
          <mxGeometry y="216" width="570" height="26" as="geometry" />
        </mxCell>
        <mxCell id="GfEQE-91LS-eangu9dl8-101" value="+Update() : void override" style="text;strokeColor=none;fillColor=none;align=left;verticalAlign=top;spacingLeft=4;spacingRight=4;overflow=hidden;rotatable=0;points=[[0,0.5],[1,0.5]];portConstraint=eastwest;whiteSpace=wrap;html=1;" parent="GfEQE-91LS-eangu9dl8-84" vertex="1">
          <mxGeometry y="242" width="570" height="26" as="geometry" />
        </mxCell>
        <mxCell id="GfEQE-91LS-eangu9dl8-88" value="PressKeyType : enum" style="swimlane;fontStyle=1;align=center;verticalAlign=top;childLayout=stackLayout;horizontal=1;startSize=26;horizontalStack=0;resizeParent=1;resizeParentMax=0;resizeLast=0;collapsible=1;marginBottom=0;whiteSpace=wrap;html=1;" parent="WIyWlLk6GJQsqaUBKTNV-1" vertex="1">
          <mxGeometry x="2520" y="341" width="160" height="138" as="geometry" />
        </mxCell>
        <mxCell id="GfEQE-91LS-eangu9dl8-89" value="Down" style="text;strokeColor=none;fillColor=none;align=left;verticalAlign=top;spacingLeft=4;spacingRight=4;overflow=hidden;rotatable=0;points=[[0,0.5],[1,0.5]];portConstraint=eastwest;whiteSpace=wrap;html=1;" parent="GfEQE-91LS-eangu9dl8-88" vertex="1">
          <mxGeometry y="26" width="160" height="26" as="geometry" />
        </mxCell>
        <mxCell id="GfEQE-91LS-eangu9dl8-93" value="Pressing" style="text;strokeColor=none;fillColor=none;align=left;verticalAlign=top;spacingLeft=4;spacingRight=4;overflow=hidden;rotatable=0;points=[[0,0.5],[1,0.5]];portConstraint=eastwest;whiteSpace=wrap;html=1;" parent="GfEQE-91LS-eangu9dl8-88" vertex="1">
          <mxGeometry y="52" width="160" height="26" as="geometry" />
        </mxCell>
        <mxCell id="GfEQE-91LS-eangu9dl8-94" value="Up" style="text;strokeColor=none;fillColor=none;align=left;verticalAlign=top;spacingLeft=4;spacingRight=4;overflow=hidden;rotatable=0;points=[[0,0.5],[1,0.5]];portConstraint=eastwest;whiteSpace=wrap;html=1;" parent="GfEQE-91LS-eangu9dl8-88" vertex="1">
          <mxGeometry y="78" width="160" height="26" as="geometry" />
        </mxCell>
        <mxCell id="GfEQE-91LS-eangu9dl8-90" value="" style="line;strokeWidth=1;fillColor=none;align=left;verticalAlign=middle;spacingTop=-1;spacingLeft=3;spacingRight=3;rotatable=0;labelPosition=right;points=[];portConstraint=eastwest;strokeColor=inherit;" parent="GfEQE-91LS-eangu9dl8-88" vertex="1">
          <mxGeometry y="104" width="160" height="8" as="geometry" />
        </mxCell>
        <mxCell id="GfEQE-91LS-eangu9dl8-91" value="+ method(type): type" style="text;strokeColor=none;fillColor=none;align=left;verticalAlign=top;spacingLeft=4;spacingRight=4;overflow=hidden;rotatable=0;points=[[0,0.5],[1,0.5]];portConstraint=eastwest;whiteSpace=wrap;html=1;" parent="GfEQE-91LS-eangu9dl8-88" vertex="1">
          <mxGeometry y="112" width="160" height="26" as="geometry" />
        </mxCell>
        <mxCell id="GfEQE-91LS-eangu9dl8-103" value="Extends" style="endArrow=block;endSize=16;endFill=0;html=1;rounded=0;entryX=1.014;entryY=-0.115;entryDx=0;entryDy=0;entryPerimeter=0;exitX=0.25;exitY=0;exitDx=0;exitDy=0;" parent="WIyWlLk6GJQsqaUBKTNV-1" source="GfEQE-91LS-eangu9dl8-84" target="GfEQE-91LS-eangu9dl8-10" edge="1">
          <mxGeometry width="160" relative="1" as="geometry">
            <mxPoint x="1930" y="340" as="sourcePoint" />
            <mxPoint x="2090" y="340" as="targetPoint" />
          </mxGeometry>
        </mxCell>
        <mxCell id="GfEQE-91LS-eangu9dl8-104" value="TapKey" style="swimlane;fontStyle=1;align=center;verticalAlign=top;childLayout=stackLayout;horizontal=1;startSize=26;horizontalStack=0;resizeParent=1;resizeParentMax=0;resizeLast=0;collapsible=1;marginBottom=0;whiteSpace=wrap;html=1;" parent="WIyWlLk6GJQsqaUBKTNV-1" vertex="1">
          <mxGeometry x="1230" y="-180" width="620" height="268" as="geometry" />
        </mxCell>
        <mxCell id="GfEQE-91LS-eangu9dl8-105" value="+clickCount : int 1" style="text;strokeColor=none;fillColor=none;align=left;verticalAlign=top;spacingLeft=4;spacingRight=4;overflow=hidden;rotatable=0;points=[[0,0.5],[1,0.5]];portConstraint=eastwest;whiteSpace=wrap;html=1;" parent="GfEQE-91LS-eangu9dl8-104" vertex="1">
          <mxGeometry y="26" width="620" height="26" as="geometry" />
        </mxCell>
        <mxCell id="GfEQE-91LS-eangu9dl8-109" value="+clickInterval : float 0.5f" style="text;strokeColor=none;fillColor=none;align=left;verticalAlign=top;spacingLeft=4;spacingRight=4;overflow=hidden;rotatable=0;points=[[0,0.5],[1,0.5]];portConstraint=eastwest;whiteSpace=wrap;html=1;" parent="GfEQE-91LS-eangu9dl8-104" vertex="1">
          <mxGeometry y="52" width="620" height="26" as="geometry" />
        </mxCell>
        <mxCell id="GfEQE-91LS-eangu9dl8-110" value="+keyCode : KeyCode" style="text;strokeColor=none;fillColor=none;align=left;verticalAlign=top;spacingLeft=4;spacingRight=4;overflow=hidden;rotatable=0;points=[[0,0.5],[1,0.5]];portConstraint=eastwest;whiteSpace=wrap;html=1;" parent="GfEQE-91LS-eangu9dl8-104" vertex="1">
          <mxGeometry y="78" width="620" height="26" as="geometry" />
        </mxCell>
        <mxCell id="GfEQE-91LS-eangu9dl8-111" value="+isTriggered : bool" style="text;strokeColor=none;fillColor=none;align=left;verticalAlign=top;spacingLeft=4;spacingRight=4;overflow=hidden;rotatable=0;points=[[0,0.5],[1,0.5]];portConstraint=eastwest;whiteSpace=wrap;html=1;" parent="GfEQE-91LS-eangu9dl8-104" vertex="1">
          <mxGeometry y="104" width="620" height="26" as="geometry" />
        </mxCell>
        <mxCell id="GfEQE-91LS-eangu9dl8-112" value="+currentCount : int" style="text;strokeColor=none;fillColor=none;align=left;verticalAlign=top;spacingLeft=4;spacingRight=4;overflow=hidden;rotatable=0;points=[[0,0.5],[1,0.5]];portConstraint=eastwest;whiteSpace=wrap;html=1;" parent="GfEQE-91LS-eangu9dl8-104" vertex="1">
          <mxGeometry y="130" width="620" height="26" as="geometry" />
        </mxCell>
        <mxCell id="GfEQE-91LS-eangu9dl8-113" value="-_currentClickInterval : float" style="text;strokeColor=none;fillColor=none;align=left;verticalAlign=top;spacingLeft=4;spacingRight=4;overflow=hidden;rotatable=0;points=[[0,0.5],[1,0.5]];portConstraint=eastwest;whiteSpace=wrap;html=1;" parent="GfEQE-91LS-eangu9dl8-104" vertex="1">
          <mxGeometry y="156" width="620" height="26" as="geometry" />
        </mxCell>
        <mxCell id="GfEQE-91LS-eangu9dl8-106" value="" style="line;strokeWidth=1;fillColor=none;align=left;verticalAlign=middle;spacingTop=-1;spacingLeft=3;spacingRight=3;rotatable=0;labelPosition=right;points=[];portConstraint=eastwest;strokeColor=inherit;" parent="GfEQE-91LS-eangu9dl8-104" vertex="1">
          <mxGeometry y="182" width="620" height="8" as="geometry" />
        </mxCell>
        <mxCell id="GfEQE-91LS-eangu9dl8-107" value="+SetEnable(bool _enbale) : void override" style="text;strokeColor=none;fillColor=none;align=left;verticalAlign=top;spacingLeft=4;spacingRight=4;overflow=hidden;rotatable=0;points=[[0,0.5],[1,0.5]];portConstraint=eastwest;whiteSpace=wrap;html=1;" parent="GfEQE-91LS-eangu9dl8-104" vertex="1">
          <mxGeometry y="190" width="620" height="26" as="geometry" />
        </mxCell>
        <mxCell id="GfEQE-91LS-eangu9dl8-115" value="+SetKeyCode(params KeyCode[] keyCodes) : void override" style="text;strokeColor=none;fillColor=none;align=left;verticalAlign=top;spacingLeft=4;spacingRight=4;overflow=hidden;rotatable=0;points=[[0,0.5],[1,0.5]];portConstraint=eastwest;whiteSpace=wrap;html=1;" parent="GfEQE-91LS-eangu9dl8-104" vertex="1">
          <mxGeometry y="216" width="620" height="26" as="geometry" />
        </mxCell>
        <mxCell id="GfEQE-91LS-eangu9dl8-116" value="+Update() : void override" style="text;strokeColor=none;fillColor=none;align=left;verticalAlign=top;spacingLeft=4;spacingRight=4;overflow=hidden;rotatable=0;points=[[0,0.5],[1,0.5]];portConstraint=eastwest;whiteSpace=wrap;html=1;" parent="GfEQE-91LS-eangu9dl8-104" vertex="1">
          <mxGeometry y="242" width="620" height="26" as="geometry" />
        </mxCell>
        <mxCell id="GfEQE-91LS-eangu9dl8-108" value="Extends" style="endArrow=block;endSize=16;endFill=0;html=1;rounded=0;entryX=1.002;entryY=0.051;entryDx=0;entryDy=0;entryPerimeter=0;exitX=0;exitY=0.5;exitDx=0;exitDy=0;" parent="WIyWlLk6GJQsqaUBKTNV-1" source="GfEQE-91LS-eangu9dl8-105" target="GfEQE-91LS-eangu9dl8-4" edge="1">
          <mxGeometry width="160" relative="1" as="geometry">
            <mxPoint x="960" y="-220" as="sourcePoint" />
            <mxPoint x="1120" y="-220" as="targetPoint" />
          </mxGeometry>
        </mxCell>
        <mxCell id="GfEQE-91LS-eangu9dl8-118" value="ValueKey" style="swimlane;fontStyle=1;align=center;verticalAlign=top;childLayout=stackLayout;horizontal=1;startSize=26;horizontalStack=0;resizeParent=1;resizeParentMax=0;resizeLast=0;collapsible=1;marginBottom=0;whiteSpace=wrap;html=1;" parent="WIyWlLk6GJQsqaUBKTNV-1" vertex="1">
          <mxGeometry x="680" y="-500" width="530" height="268" as="geometry" />
        </mxCell>
        <mxCell id="GfEQE-91LS-eangu9dl8-119" value="+range : Vector2 (0f, 1f)" style="text;strokeColor=none;fillColor=none;align=left;verticalAlign=top;spacingLeft=4;spacingRight=4;overflow=hidden;rotatable=0;points=[[0,0.5],[1,0.5]];portConstraint=eastwest;whiteSpace=wrap;html=1;" parent="GfEQE-91LS-eangu9dl8-118" vertex="1">
          <mxGeometry y="26" width="530" height="26" as="geometry" />
        </mxCell>
        <mxCell id="GfEQE-91LS-eangu9dl8-122" value="+start : float 0f" style="text;strokeColor=none;fillColor=none;align=left;verticalAlign=top;spacingLeft=4;spacingRight=4;overflow=hidden;rotatable=0;points=[[0,0.5],[1,0.5]];portConstraint=eastwest;whiteSpace=wrap;html=1;" parent="GfEQE-91LS-eangu9dl8-118" vertex="1">
          <mxGeometry y="52" width="530" height="26" as="geometry" />
        </mxCell>
        <mxCell id="GfEQE-91LS-eangu9dl8-123" value="+speed : Vector2" style="text;strokeColor=none;fillColor=none;align=left;verticalAlign=top;spacingLeft=4;spacingRight=4;overflow=hidden;rotatable=0;points=[[0,0.5],[1,0.5]];portConstraint=eastwest;whiteSpace=wrap;html=1;" parent="GfEQE-91LS-eangu9dl8-118" vertex="1">
          <mxGeometry y="78" width="530" height="26" as="geometry" />
        </mxCell>
        <mxCell id="GfEQE-91LS-eangu9dl8-124" value="+keyCode : KeyCode" style="text;strokeColor=none;fillColor=none;align=left;verticalAlign=top;spacingLeft=4;spacingRight=4;overflow=hidden;rotatable=0;points=[[0,0.5],[1,0.5]];portConstraint=eastwest;whiteSpace=wrap;html=1;" parent="GfEQE-91LS-eangu9dl8-118" vertex="1">
          <mxGeometry y="104" width="530" height="26" as="geometry" />
        </mxCell>
        <mxCell id="GfEQE-91LS-eangu9dl8-125" value="+value : float" style="text;strokeColor=none;fillColor=none;align=left;verticalAlign=top;spacingLeft=4;spacingRight=4;overflow=hidden;rotatable=0;points=[[0,0.5],[1,0.5]];portConstraint=eastwest;whiteSpace=wrap;html=1;" parent="GfEQE-91LS-eangu9dl8-118" vertex="1">
          <mxGeometry y="130" width="530" height="26" as="geometry" />
        </mxCell>
        <mxCell id="GfEQE-91LS-eangu9dl8-120" value="" style="line;strokeWidth=1;fillColor=none;align=left;verticalAlign=middle;spacingTop=-1;spacingLeft=3;spacingRight=3;rotatable=0;labelPosition=right;points=[];portConstraint=eastwest;strokeColor=inherit;" parent="GfEQE-91LS-eangu9dl8-118" vertex="1">
          <mxGeometry y="156" width="530" height="8" as="geometry" />
        </mxCell>
        <mxCell id="GfEQE-91LS-eangu9dl8-121" value="+Init() : void override" style="text;strokeColor=none;fillColor=none;align=left;verticalAlign=top;spacingLeft=4;spacingRight=4;overflow=hidden;rotatable=0;points=[[0,0.5],[1,0.5]];portConstraint=eastwest;whiteSpace=wrap;html=1;" parent="GfEQE-91LS-eangu9dl8-118" vertex="1">
          <mxGeometry y="164" width="530" height="26" as="geometry" />
        </mxCell>
        <mxCell id="GfEQE-91LS-eangu9dl8-126" value="+SetEnable(bool _enable) : void voerride" style="text;strokeColor=none;fillColor=none;align=left;verticalAlign=top;spacingLeft=4;spacingRight=4;overflow=hidden;rotatable=0;points=[[0,0.5],[1,0.5]];portConstraint=eastwest;whiteSpace=wrap;html=1;" parent="GfEQE-91LS-eangu9dl8-118" vertex="1">
          <mxGeometry y="190" width="530" height="26" as="geometry" />
        </mxCell>
        <mxCell id="GfEQE-91LS-eangu9dl8-127" value="+SetKeyCode(params KeyCode[] keyCodes) : void override" style="text;strokeColor=none;fillColor=none;align=left;verticalAlign=top;spacingLeft=4;spacingRight=4;overflow=hidden;rotatable=0;points=[[0,0.5],[1,0.5]];portConstraint=eastwest;whiteSpace=wrap;html=1;" parent="GfEQE-91LS-eangu9dl8-118" vertex="1">
          <mxGeometry y="216" width="530" height="26" as="geometry" />
        </mxCell>
        <mxCell id="GfEQE-91LS-eangu9dl8-128" value="+Update() : void override" style="text;strokeColor=none;fillColor=none;align=left;verticalAlign=top;spacingLeft=4;spacingRight=4;overflow=hidden;rotatable=0;points=[[0,0.5],[1,0.5]];portConstraint=eastwest;whiteSpace=wrap;html=1;" parent="GfEQE-91LS-eangu9dl8-118" vertex="1">
          <mxGeometry y="242" width="530" height="26" as="geometry" />
        </mxCell>
        <mxCell id="GfEQE-91LS-eangu9dl8-129" value="Extends" style="endArrow=block;endSize=16;endFill=0;html=1;rounded=0;" parent="WIyWlLk6GJQsqaUBKTNV-1" source="GfEQE-91LS-eangu9dl8-128" target="GfEQE-91LS-eangu9dl8-4" edge="1">
          <mxGeometry width="160" relative="1" as="geometry">
            <mxPoint x="720" y="-180" as="sourcePoint" />
            <mxPoint x="880" y="-180" as="targetPoint" />
          </mxGeometry>
        </mxCell>
        <mxCell id="G2M7-LMzRMHqUTI3DSJV-0" value="&lt;p style=&quot;margin:0px;margin-top:4px;text-align:center;&quot;&gt;&lt;i&gt;&amp;lt;&amp;lt;Interface&amp;gt;&amp;gt;&lt;/i&gt;&lt;br&gt;&lt;b&gt;IKeyContainer&lt;/b&gt;&lt;/p&gt;&lt;hr size=&quot;1&quot; style=&quot;border-style:solid;&quot;&gt;&lt;p style=&quot;margin:0px;margin-left:4px;&quot;&gt;+ field1: Type&lt;br&gt;+ field2: Type&lt;/p&gt;&lt;hr size=&quot;1&quot; style=&quot;border-style:solid;&quot;&gt;&lt;p style=&quot;margin:0px;margin-left:4px;&quot;&gt;GetKeyObject(string name) : VirtualKey // 获取虚拟键&lt;/p&gt;&lt;p style=&quot;margin:0px;margin-left:4px;&quot;&gt;SetKeyCode(string name, params KeyCode[] keyCodes); void // 设置键值&lt;/p&gt;&lt;p style=&quot;margin:0px;margin-left:4px;&quot;&gt;Enable(string name, bool enable); void // 启用虚拟键&lt;/p&gt;&lt;p style=&quot;margin:0px;margin-left:4px;&quot;&gt;Init() : void // 初始化&lt;/p&gt;&lt;p style=&quot;margin:0px;margin-left:4px;&quot;&gt;Updat() : void // 更新&lt;br&gt;&lt;/p&gt;" style="verticalAlign=top;align=left;overflow=fill;html=1;whiteSpace=wrap;" vertex="1" parent="WIyWlLk6GJQsqaUBKTNV-1">
          <mxGeometry x="-280" y="-290" width="550" height="164" as="geometry" />
        </mxCell>
        <mxCell id="G2M7-LMzRMHqUTI3DSJV-1" value="KeyContainer&amp;lt;T&amp;gt; : IKeyContainer where T : VirtualKey, new()" style="swimlane;fontStyle=1;align=center;verticalAlign=top;childLayout=stackLayout;horizontal=1;startSize=26;horizontalStack=0;resizeParent=1;resizeParentMax=0;resizeLast=0;collapsible=1;marginBottom=0;whiteSpace=wrap;html=1;" vertex="1" parent="WIyWlLk6GJQsqaUBKTNV-1">
          <mxGeometry x="-550" y="80" width="480" height="190" as="geometry" />
        </mxCell>
        <mxCell id="G2M7-LMzRMHqUTI3DSJV-2" value="+keys : List&amp;lt;T&amp;gt;" style="text;strokeColor=none;fillColor=none;align=left;verticalAlign=top;spacingLeft=4;spacingRight=4;overflow=hidden;rotatable=0;points=[[0,0.5],[1,0.5]];portConstraint=eastwest;whiteSpace=wrap;html=1;" vertex="1" parent="G2M7-LMzRMHqUTI3DSJV-1">
          <mxGeometry y="26" width="480" height="26" as="geometry" />
        </mxCell>
        <mxCell id="G2M7-LMzRMHqUTI3DSJV-3" value="" style="line;strokeWidth=1;fillColor=none;align=left;verticalAlign=middle;spacingTop=-1;spacingLeft=3;spacingRight=3;rotatable=0;labelPosition=right;points=[];portConstraint=eastwest;strokeColor=inherit;" vertex="1" parent="G2M7-LMzRMHqUTI3DSJV-1">
          <mxGeometry y="52" width="480" height="8" as="geometry" />
        </mxCell>
        <mxCell id="G2M7-LMzRMHqUTI3DSJV-4" value="+ GetKeyObject(string name) : VirtualKey" style="text;strokeColor=none;fillColor=none;align=left;verticalAlign=top;spacingLeft=4;spacingRight=4;overflow=hidden;rotatable=0;points=[[0,0.5],[1,0.5]];portConstraint=eastwest;whiteSpace=wrap;html=1;" vertex="1" parent="G2M7-LMzRMHqUTI3DSJV-1">
          <mxGeometry y="60" width="480" height="26" as="geometry" />
        </mxCell>
        <mxCell id="G2M7-LMzRMHqUTI3DSJV-5" value="+ SetKeyCode(string name, params KeyCode[] keyCodes) : void" style="text;strokeColor=none;fillColor=none;align=left;verticalAlign=top;spacingLeft=4;spacingRight=4;overflow=hidden;rotatable=0;points=[[0,0.5],[1,0.5]];portConstraint=eastwest;whiteSpace=wrap;html=1;" vertex="1" parent="G2M7-LMzRMHqUTI3DSJV-1">
          <mxGeometry y="86" width="480" height="26" as="geometry" />
        </mxCell>
        <mxCell id="G2M7-LMzRMHqUTI3DSJV-6" value="+ EnableKey(string name, bool enable) : void" style="text;strokeColor=none;fillColor=none;align=left;verticalAlign=top;spacingLeft=4;spacingRight=4;overflow=hidden;rotatable=0;points=[[0,0.5],[1,0.5]];portConstraint=eastwest;whiteSpace=wrap;html=1;" vertex="1" parent="G2M7-LMzRMHqUTI3DSJV-1">
          <mxGeometry y="112" width="480" height="26" as="geometry" />
        </mxCell>
        <mxCell id="G2M7-LMzRMHqUTI3DSJV-7" value="+ Init() : void" style="text;strokeColor=none;fillColor=none;align=left;verticalAlign=top;spacingLeft=4;spacingRight=4;overflow=hidden;rotatable=0;points=[[0,0.5],[1,0.5]];portConstraint=eastwest;whiteSpace=wrap;html=1;" vertex="1" parent="G2M7-LMzRMHqUTI3DSJV-1">
          <mxGeometry y="138" width="480" height="26" as="geometry" />
        </mxCell>
        <mxCell id="G2M7-LMzRMHqUTI3DSJV-8" value="+ Update : void" style="text;strokeColor=none;fillColor=none;align=left;verticalAlign=top;spacingLeft=4;spacingRight=4;overflow=hidden;rotatable=0;points=[[0,0.5],[1,0.5]];portConstraint=eastwest;whiteSpace=wrap;html=1;" vertex="1" parent="G2M7-LMzRMHqUTI3DSJV-1">
          <mxGeometry y="164" width="480" height="26" as="geometry" />
        </mxCell>
        <mxCell id="G2M7-LMzRMHqUTI3DSJV-9" value="" style="endArrow=block;dashed=1;endFill=0;endSize=12;html=1;rounded=0;exitX=0.199;exitY=-0.012;exitDx=0;exitDy=0;exitPerimeter=0;" edge="1" parent="WIyWlLk6GJQsqaUBKTNV-1" source="G2M7-LMzRMHqUTI3DSJV-1">
          <mxGeometry width="160" relative="1" as="geometry">
            <mxPoint x="-320" y="-90" as="sourcePoint" />
            <mxPoint x="-150" y="-120" as="targetPoint" />
          </mxGeometry>
        </mxCell>
        <mxCell id="G2M7-LMzRMHqUTI3DSJV-10" value="Use" style="endArrow=open;endSize=12;dashed=1;html=1;rounded=0;entryX=0;entryY=0.5;entryDx=0;entryDy=0;" edge="1" parent="WIyWlLk6GJQsqaUBKTNV-1" target="GfEQE-91LS-eangu9dl8-126">
          <mxGeometry width="160" relative="1" as="geometry">
            <mxPoint x="270" y="-200" as="sourcePoint" />
            <mxPoint x="430" y="-200" as="targetPoint" />
          </mxGeometry>
        </mxCell>
        <mxCell id="G2M7-LMzRMHqUTI3DSJV-11" value="UIKey" style="swimlane;fontStyle=1;align=center;verticalAlign=top;childLayout=stackLayout;horizontal=1;startSize=26;horizontalStack=0;resizeParent=1;resizeParentMax=0;resizeLast=0;collapsible=1;marginBottom=0;whiteSpace=wrap;html=1;" vertex="1" parent="WIyWlLk6GJQsqaUBKTNV-1">
          <mxGeometry x="-1340" y="-280" width="640" height="320" as="geometry" />
        </mxCell>
        <mxCell id="G2M7-LMzRMHqUTI3DSJV-12" value="+active : bool {get; set}" style="text;strokeColor=none;fillColor=none;align=left;verticalAlign=top;spacingLeft=4;spacingRight=4;overflow=hidden;rotatable=0;points=[[0,0.5],[1,0.5]];portConstraint=eastwest;whiteSpace=wrap;html=1;" vertex="1" parent="G2M7-LMzRMHqUTI3DSJV-11">
          <mxGeometry y="26" width="640" height="26" as="geometry" />
        </mxCell>
        <mxCell id="G2M7-LMzRMHqUTI3DSJV-15" value="-_text : Text" style="text;strokeColor=none;fillColor=none;align=left;verticalAlign=top;spacingLeft=4;spacingRight=4;overflow=hidden;rotatable=0;points=[[0,0.5],[1,0.5]];portConstraint=eastwest;whiteSpace=wrap;html=1;" vertex="1" parent="G2M7-LMzRMHqUTI3DSJV-11">
          <mxGeometry y="52" width="640" height="26" as="geometry" />
        </mxCell>
        <mxCell id="G2M7-LMzRMHqUTI3DSJV-17" value="-_keyCode : KeyCode" style="text;strokeColor=none;fillColor=none;align=left;verticalAlign=top;spacingLeft=4;spacingRight=4;overflow=hidden;rotatable=0;points=[[0,0.5],[1,0.5]];portConstraint=eastwest;whiteSpace=wrap;html=1;" vertex="1" parent="G2M7-LMzRMHqUTI3DSJV-11">
          <mxGeometry y="78" width="640" height="26" as="geometry" />
        </mxCell>
        <mxCell id="G2M7-LMzRMHqUTI3DSJV-18" value="- _saveData : Action&amp;lt;KeyCode&amp;gt;" style="text;strokeColor=none;fillColor=none;align=left;verticalAlign=top;spacingLeft=4;spacingRight=4;overflow=hidden;rotatable=0;points=[[0,0.5],[1,0.5]];portConstraint=eastwest;whiteSpace=wrap;html=1;" vertex="1" parent="G2M7-LMzRMHqUTI3DSJV-11">
          <mxGeometry y="104" width="640" height="26" as="geometry" />
        </mxCell>
        <mxCell id="G2M7-LMzRMHqUTI3DSJV-19" value="-_updateText : Action" style="text;strokeColor=none;fillColor=none;align=left;verticalAlign=top;spacingLeft=4;spacingRight=4;overflow=hidden;rotatable=0;points=[[0,0.5],[1,0.5]];portConstraint=eastwest;whiteSpace=wrap;html=1;" vertex="1" parent="G2M7-LMzRMHqUTI3DSJV-11">
          <mxGeometry y="130" width="640" height="26" as="geometry" />
        </mxCell>
        <mxCell id="G2M7-LMzRMHqUTI3DSJV-13" value="" style="line;strokeWidth=1;fillColor=none;align=left;verticalAlign=middle;spacingTop=-1;spacingLeft=3;spacingRight=3;rotatable=0;labelPosition=right;points=[];portConstraint=eastwest;strokeColor=inherit;" vertex="1" parent="G2M7-LMzRMHqUTI3DSJV-11">
          <mxGeometry y="156" width="640" height="8" as="geometry" />
        </mxCell>
        <mxCell id="G2M7-LMzRMHqUTI3DSJV-14" value="+ UIKey(Text text)" style="text;strokeColor=none;fillColor=none;align=left;verticalAlign=top;spacingLeft=4;spacingRight=4;overflow=hidden;rotatable=0;points=[[0,0.5],[1,0.5]];portConstraint=eastwest;whiteSpace=wrap;html=1;" vertex="1" parent="G2M7-LMzRMHqUTI3DSJV-11">
          <mxGeometry y="164" width="640" height="26" as="geometry" />
        </mxCell>
        <mxCell id="G2M7-LMzRMHqUTI3DSJV-20" value="+ SetSaveAction(Action&amp;lt;KeyCode&amp;gt; save) : void" style="text;strokeColor=none;fillColor=none;align=left;verticalAlign=top;spacingLeft=4;spacingRight=4;overflow=hidden;rotatable=0;points=[[0,0.5],[1,0.5]];portConstraint=eastwest;whiteSpace=wrap;html=1;" vertex="1" parent="G2M7-LMzRMHqUTI3DSJV-11">
          <mxGeometry y="190" width="640" height="26" as="geometry" />
        </mxCell>
        <mxCell id="G2M7-LMzRMHqUTI3DSJV-21" value="+ SetUpdateAction(Action update) : void" style="text;strokeColor=none;fillColor=none;align=left;verticalAlign=top;spacingLeft=4;spacingRight=4;overflow=hidden;rotatable=0;points=[[0,0.5],[1,0.5]];portConstraint=eastwest;whiteSpace=wrap;html=1;" vertex="1" parent="G2M7-LMzRMHqUTI3DSJV-11">
          <mxGeometry y="216" width="640" height="26" as="geometry" />
        </mxCell>
        <mxCell id="G2M7-LMzRMHqUTI3DSJV-22" value="+ AcceptInput() : void" style="text;strokeColor=none;fillColor=none;align=left;verticalAlign=top;spacingLeft=4;spacingRight=4;overflow=hidden;rotatable=0;points=[[0,0.5],[1,0.5]];portConstraint=eastwest;whiteSpace=wrap;html=1;" vertex="1" parent="G2M7-LMzRMHqUTI3DSJV-11">
          <mxGeometry y="242" width="640" height="26" as="geometry" />
        </mxCell>
        <mxCell id="G2M7-LMzRMHqUTI3DSJV-23" value="+ UpdateText() : void" style="text;strokeColor=none;fillColor=none;align=left;verticalAlign=top;spacingLeft=4;spacingRight=4;overflow=hidden;rotatable=0;points=[[0,0.5],[1,0.5]];portConstraint=eastwest;whiteSpace=wrap;html=1;" vertex="1" parent="G2M7-LMzRMHqUTI3DSJV-11">
          <mxGeometry y="268" width="640" height="26" as="geometry" />
        </mxCell>
        <mxCell id="G2M7-LMzRMHqUTI3DSJV-24" value="+ SetText(KeyCode keyCode) : void" style="text;strokeColor=none;fillColor=none;align=left;verticalAlign=top;spacingLeft=4;spacingRight=4;overflow=hidden;rotatable=0;points=[[0,0.5],[1,0.5]];portConstraint=eastwest;whiteSpace=wrap;html=1;" vertex="1" parent="G2M7-LMzRMHqUTI3DSJV-11">
          <mxGeometry y="294" width="640" height="26" as="geometry" />
        </mxCell>
      </root>
    </mxGraphModel>
  </diagram>
</mxfile>
